# xmcd CD database file
#
# Track frame offsets:
#	150
#	15330
#	31657
#	89480
#	113722
#	133285
#	162435
#	182145
#	202840
#	221817
#	250547
#
# Disc length: 3734 seconds
#
# Revision: 2
# Processed by: cddbd v1.4PL0 Copyright (c) Steve Scherf et al.
# Submitted via: CDex 1.50
#
DISCID=8d0e940b
DTITLE=Various Artisis - Best Of The Jazz Saxophones - Vol 3
DYEAR=1989
DGENRE=Jazz
TTITLE0=Zoot Sims - A Summer Thing
TTITLE1=Zoot Sims - Somebody Loves me
TTITLE2=Eddie Daniels Jazz Wave Tour Featuring Freddie Hubbard - Without A Song
TTITLE3=Gerry Mulligan - North Atlantic Run
TTITLE4=Sonny Stitt - There Will Never Be Another You
TTITLE5=Sonny Stitt - Masquerade Is Over
TTITLE6=Stan Getz - Theme For Manuel
TTITLE7=Lee KonitzMy Own Best Friend
TTITLE8=Eddie "Lockjaw" Davis - Body And Soul
TTITLE9=Eddie "Lockjaw" Davis - Shadow Of Your Smile
TTITLE10=Illinois Jacquet - Sweet Georgia Brown
EXTD=YEAR: 1989
EXTT0=Sims, Zoot
EXTT1=Sims, Zoot
EXTT2=Hubbard, Freddie
EXTT3=Mulligan, Gerry
EXTT4=Stitt, Sonny
EXTT5=Stitt, Sonny
EXTT6=Getz, Stan
EXTT7=Konitz, Lee
EXTT8=Davis, Eddie "Lockjaw" 
EXTT9=Davis, Eddie "Lockjaw" 
EXTT10=Jacquet, Illinois
PLAYORDER=
